<?xml version="1.0" encoding="utf-8"?>
<!-- Generator: Adobe Illustrator 18.0.0, SVG Export Plug-In . SVG Version: 6.00 Build 0)  -->
<!DOCTYPE svg PUBLIC "-//W3C//DTD SVG 1.1//EN" "http://www.w3.org/Graphics/SVG/1.1/DTD/svg11.dtd">
<svg version="1.1" id="图层_1" xmlns="http://www.w3.org/2000/svg" xmlns:xlink="http://www.w3.org/1999/xlink" x="0px" y="0px"
	 viewBox="0 0 1024 1024" style="enable-background:new 0 0 1024 1024;" xml:space="preserve">
<g>
	<g>
		<path d="M506.838,434.518L273.715,201.396c-9.939-9.997-23.704-16.186-38.912-16.186c-15.18,0-28.928,6.17-38.858,16.136
			c-9.988,9.938-16.166,23.691-16.166,38.889c0,15.194,6.178,28.946,16.163,38.885l233.221,233.123L195.989,745.367
			c-9.996,9.938-16.185,23.7-16.185,38.908c0,15.185,6.165,28.929,16.136,38.863c9.939,9.983,23.691,16.161,38.889,16.161
			c15.194,0,28.946-6.178,38.88-16.157L506.833,589.92l233.123,233.123c21.642,21.637,56.326,21.493,77.771,0.045
			c9.983-9.934,16.166-23.687,16.166-38.886c0-15.193-6.178-28.946-16.161-38.885L584.509,512.244l233.123-233.123
			c9.997-9.938,16.189-23.704,16.189-38.913c0-15.179-6.17-28.928-16.14-38.858c-9.938-9.988-23.692-16.166-38.886-16.166
			c-15.198,0-28.951,6.178-38.885,16.163L506.833,434.567L506.838,434.518z M506.838,434.518"/>
	</g>
</g>
</svg>
