<?xml version="1.0" encoding="utf-8"?>
<!-- Generator: Adobe Illustrator 18.0.0, SVG Export Plug-In . SVG Version: 6.00 Build 0)  -->
<!DOCTYPE svg PUBLIC "-//W3C//DTD SVG 1.1//EN" "http://www.w3.org/Graphics/SVG/1.1/DTD/svg11.dtd">
<svg version="1.1" id="图层_1" xmlns="http://www.w3.org/2000/svg" xmlns:xlink="http://www.w3.org/1999/xlink" x="0px" y="0px"
	 viewBox="0 0 1024 1024" style="enable-background:new 0 0 1024 1024;" xml:space="preserve">
<style type="text/css">
	.st0{fill-rule:evenodd;clip-rule:evenodd;fill:#1371F1;}
	.st1{fill-rule:evenodd;clip-rule:evenodd;fill:#57C6FD;}
</style>
<g>
	<path class="st0" d="M845.37,624.561c0,8.438-6.841,15.279-15.278,15.279c-8.438,0-15.279-6.841-15.279-15.279v-78.114
		c0.214-8.285,6.992-14.889,15.279-14.889c8.287,0,15.065,6.605,15.278,14.889V624.561L845.37,624.561z"/>
	<path class="st1" d="M402.644,338.48c0,4.052-1.61,7.939-4.475,10.804c-2.866,2.866-6.751,4.475-10.804,4.475H323.7
		c-4.052,0-7.939-1.609-10.804-4.475c-2.866-2.865-4.475-6.751-4.475-10.804c0-0.29,0.071-0.555,0.091-0.846h-21.471
		c0.015,0.286,0.086,0.556,0.086,0.846c0,4.052-1.609,7.939-4.475,10.804c-2.865,2.866-6.751,4.475-10.804,4.475h-63.085v14.433
		h577.173v426.878c0,7.96-2.653,15.279-7.075,21.217h0.301c19.653,0,35.65-15.997,35.65-35.65V353.758H438.721
		c-4.052,0-7.939-1.609-10.804-4.475c-2.866-2.865-4.475-6.751-4.475-10.804c0-0.29,0.071-0.555,0.086-0.846h-20.967
		C402.572,337.925,402.644,338.195,402.644,338.48L402.644,338.48z M779.163,211.404H244.414
		c-13.099,0.011-25.138,7.198-31.367,18.721c5.197-2.817,11.016-4.29,16.929-4.283H764.72c19.653,0,35.65,15.992,35.65,35.65v60.871
		h14.443v-75.309C814.813,227.395,798.815,211.404,779.163,211.404L779.163,211.404z"/>
	<path class="st0" d="M348.394,129.918c-8.438,0-15.279,6.841-15.279,15.279v101.857c0,8.437,6.841,15.279,15.279,15.279
		c8.439,0,15.279-6.841,15.279-15.279V145.197C363.673,136.759,356.833,129.918,348.394,129.918L348.394,129.918z M675.187,129.918
		c-8.438,0-15.279,6.841-15.279,15.279v101.857c0,8.437,6.841,15.279,15.279,15.279c8.439,0,15.279-6.841,15.279-15.279V145.197
		C690.465,136.759,683.626,129.918,675.187,129.918L675.187,129.918z"/>
	<path class="st0" d="M371.067,519.521H346.54c1.181-26.076,9.834-46.987,25.953-62.749c16.114-15.757,35.783-23.64,59.012-23.64
		c22.515,0,41.287,7.409,56.342,22.219c15.044,14.816,22.576,32.885,22.576,54.214c0,15.875-4.211,30.568-12.625,44.074
		c-8.413,13.507-21.145,29.513-38.211,47.995l-63.63,68.606h118.021v24.527H340.495l97.406-105.218
		c17.067-18.481,29.264-33.063,36.612-43.727c7.34-10.664,11.016-22.628,11.016-35.905c0-14.219-5.394-26.538-16.175-36.969
		c-10.786-10.424-23.875-15.64-39.281-15.64c-16.593,0-30.16,5.394-40.703,16.175C378.824,484.269,372.723,499.608,371.067,519.521
		L371.067,519.521z M592.53,439.532h50.124v255.233h-25.235V464.416h-40.167L592.53,439.532L592.53,439.532z"/>
	<path class="st0" d="M387.365,322.362h-63.661c-8.439,0-15.279,6.84-15.279,15.279c0,8.438,6.84,15.279,15.279,15.279h63.661
		c8.437,0,15.279-6.841,15.279-15.279C402.644,329.202,395.803,322.362,387.365,322.362L387.365,322.362z"/>
	<path class="st0" d="M845.37,247.054c0-36.505-29.702-66.207-66.207-66.207H244.414c-36.505,0-66.207,29.702-66.207,66.207v532.737
		c0,36.515,29.702,66.207,66.207,66.207h534.749c36.505,0,66.207-29.692,66.207-66.207V672.53
		c-0.214-8.285-6.991-14.889-15.278-14.889c-8.287,0-15.065,6.605-15.279,14.889v107.261c0,19.664-15.997,35.65-35.65,35.65H244.414
		c-19.653,0-35.65-15.986-35.65-35.65V352.919h63.085c8.439,0,15.279-6.841,15.279-15.279c0-8.439-6.84-15.279-15.279-15.279
		h-63.085v-75.309c0-19.659,15.997-35.65,35.65-35.65h534.749c19.653,0,35.65,15.991,35.65,35.65v75.309H438.721
		c-8.439,0-15.279,6.84-15.279,15.279c0,8.438,6.84,15.279,15.279,15.279h376.091v142.452h0.189
		c-0.082,0.637-0.189,1.257-0.189,1.915c0,8.438,6.841,15.279,15.279,15.279c8.437,0,15.278-6.841,15.278-15.279
		c0-0.658-0.117-1.278-0.199-1.915h0.199V247.054L845.37,247.054z"/>
</g>
</svg>
