<?xml version="1.0" encoding="utf-8"?>
<!-- Generator: Adobe Illustrator 18.0.0, SVG Export Plug-In . SVG Version: 6.00 Build 0)  -->
<!DOCTYPE svg PUBLIC "-//W3C//DTD SVG 1.1//EN" "http://www.w3.org/Graphics/SVG/1.1/DTD/svg11.dtd">
<svg version="1.1" id="图层_1" xmlns="http://www.w3.org/2000/svg" xmlns:xlink="http://www.w3.org/1999/xlink" x="0px" y="0px"
	 viewBox="0 0 1024 1024" style="enable-background:new 0 0 1024 1024;" xml:space="preserve">
<style type="text/css">
	.st0{fill:#FFFFFF;}
	.st1{clip-path:url(#SVGID_2_);fill:#636FE7;}
	.st2{fill:#636FE7;}
</style>
<circle class="st0" cx="515.938" cy="503.197" r="405.605"/>
<g>
	<g>
		<defs>
			<rect id="SVGID_1_" x="79.639" y="76.764" width="864.793" height="865.846"/>
		</defs>
		<clipPath id="SVGID_2_">
			<use xlink:href="#SVGID_1_"  style="overflow:visible;"/>
		</clipPath>
		<path class="st1" d="M511.957,941.557c-238.455,0-432.449-194.003-432.449-432.458S273.502,76.641,511.957,76.641
			c238.452,0,432.467,193.994,432.467,432.458S750.391,941.557,511.957,941.557L511.957,941.557z M511.957,119.861
			c-214.63,0-389.238,174.613-389.238,389.238S297.34,898.337,511.957,898.337c214.618,0,389.2-174.613,389.2-389.238
			S726.591,119.861,511.957,119.861L511.957,119.861z M511.957,119.861"/>
	</g>
	<path class="st2" d="M664.598,683.361c-5.742,0.013-11.248-2.269-15.3-6.337L511.811,539.541L374.599,676.989
		c-5.357,5.901-13.523,8.376-21.253,6.436c-7.73-1.935-13.763-7.968-15.699-15.698c-1.939-7.73,0.536-15.895,6.437-21.253
		l137.422-137.483L344.05,371.758c-5.464-5.46-7.596-13.424-5.596-20.884c2-7.46,7.827-13.287,15.287-15.287
		c7.46-2,15.424,0.133,20.884,5.596L512.082,478.64l137.216-137.457c5.353-5.901,13.519-8.375,21.248-6.44
		c7.73,1.94,13.763,7.974,15.702,15.702c1.936,7.73-0.539,15.895-6.44,21.248L542.399,509.189l137.474,137.242
		c6.188,6.179,8.042,15.477,4.706,23.561c-3.34,8.08-11.219,13.355-19.963,13.369H664.598z M664.598,683.361"/>
</g>
</svg>
