<?xml version="1.0" encoding="utf-8"?>
<!-- Generator: Adobe Illustrator 18.0.0, SVG Export Plug-In . SVG Version: 6.00 Build 0)  -->
<!DOCTYPE svg PUBLIC "-//W3C//DTD SVG 1.1//EN" "http://www.w3.org/Graphics/SVG/1.1/DTD/svg11.dtd">
<svg version="1.1" id="图层_1" xmlns="http://www.w3.org/2000/svg" xmlns:xlink="http://www.w3.org/1999/xlink" x="0px" y="0px"
	 viewBox="0 0 1024 1024" style="enable-background:new 0 0 1024 1024;" xml:space="preserve">
<style type="text/css">
	.st0{fill:#0078D7;}
</style>
<g>
	<g>
		<path class="st0" d="M943.506,464.932L787.631,782.02c-7.964,15.979-23.736,26.603-41.538,27.977H246.494
			c-6.882,0.584-13.466-2.923-16.822-8.961c-3.356-6.037-2.861-13.481,1.266-19.016l155.875-317.087
			c7.964-15.982,23.737-26.605,41.541-27.98H927.95c6.883-0.584,13.467,2.923,16.825,8.961
			C948.131,451.95,947.633,459.394,943.506,464.932L943.506,464.932z M818.312,380.998H353.502L165.488,772.692V250.433
			c0-20.602,16.703-37.305,37.305-37.305H445.27c20.602,0,37.305,16.703,37.305,37.305v37.303h335.737
			c20.606,0,37.305,16.702,37.305,37.305v18.653C855.617,364.295,838.917,380.998,818.312,380.998L818.312,380.998z
			 M818.312,380.998"/>
	</g>
</g>
</svg>
