<?xml version="1.0" encoding="utf-8"?>
<!-- Generator: Adobe Illustrator 18.0.0, SVG Export Plug-In . SVG Version: 6.00 Build 0)  -->
<!DOCTYPE svg PUBLIC "-//W3C//DTD SVG 1.1//EN" "http://www.w3.org/Graphics/SVG/1.1/DTD/svg11.dtd">
<svg version="1.1" id="图层_1" xmlns="http://www.w3.org/2000/svg" xmlns:xlink="http://www.w3.org/1999/xlink" x="0px" y="0px"
	 viewBox="0 0 1024 1024" style="enable-background:new 0 0 1024 1024;" xml:space="preserve">
<g>
	<g>
		<path d="M811.174,626.95c-11.371,0-20.588-9.217-20.588-20.587V236.762H333.367c-11.37,0-20.592-9.217-20.592-20.588
			c0-11.374,9.222-20.592,20.592-20.592h463.334c19.384,0,35.063,15.767,35.063,35.152v375.629
			C831.765,617.648,822.548,626.95,811.174,626.95L811.174,626.95z M811.174,626.95"/>
		<path d="M708.824,291.73H170.967c-15.678,0-28.428,14.043-28.428,31.358v409.917c0,17.319,12.751,31.361,28.428,31.361h100.717
			l22.397,72.629c3.189,10.424,14.819,14.042,22.489,7.062l87.184-79.607h305.07c15.678,0,28.428-14.043,28.428-31.358V323.087
			C737.253,305.772,724.502,291.73,708.824,291.73L708.824,291.73z M280.04,555.015c-18.956,0-34.373-15.422-34.373-34.377
			c0-18.955,15.417-34.373,34.373-34.373c18.955,0,34.377,15.418,34.377,34.373C314.417,539.678,298.994,555.015,280.04,555.015
			L280.04,555.015z M445.022,555.015c-18.952,0-34.373-15.422-34.373-34.377c0-18.955,15.421-34.373,34.373-34.373
			c18.955,0,34.377,15.418,34.377,34.373C479.399,539.678,464.062,555.015,445.022,555.015L445.022,555.015z M599.753,555.015
			c-18.952,0-34.373-15.422-34.373-34.377c0-18.955,15.421-34.373,34.373-34.373c18.955,0,34.376,15.418,34.376,34.373
			C634.13,539.678,618.708,555.015,599.753,555.015L599.753,555.015z M599.753,555.015"/>
	</g>
</g>
</svg>
