<?xml version="1.0" encoding="utf-8"?>
<!-- Generator: Adobe Illustrator 18.0.0, SVG Export Plug-In . SVG Version: 6.00 Build 0)  -->
<!DOCTYPE svg PUBLIC "-//W3C//DTD SVG 1.1//EN" "http://www.w3.org/Graphics/SVG/1.1/DTD/svg11.dtd">
<svg version="1.1" id="图层_1" xmlns="http://www.w3.org/2000/svg" xmlns:xlink="http://www.w3.org/1999/xlink" x="0px" y="0px"
	 viewBox="0 0 1024 1024" style="enable-background:new 0 0 1024 1024;" xml:space="preserve">
<style type="text/css">
	.st0{fill:#070102;}
</style>
<g>
	<g>
		<path class="st0" d="M126.18,671.992c0.003-129.79,162.055-156.36,261.526-155.367c50.359,0.502,102.702,7.881,148.642,29.457
			c30.625,14.383,57.706,37.233,73.885,67.259c18.865,35.012,17.017,74.494,17.017,113.086H126.18
			C126.18,726.427,126.18,672.015,126.18,671.992z M376.892,426.464c-83.035,0-150.337-67.482-150.337-150.608
			c0-83.215,67.302-150.695,150.337-150.695c83.036,0,150.342,67.393,150.342,150.695
			C527.234,358.982,459.928,426.464,376.892,426.464L376.892,426.464z M695.665,676.593c-1.938-15.653-6.047-30.877-14.734-47.218
			c-3.375-6.35-25.78-53.198-33.705-53.198c0.002,0,50.071,0,50.142,0c44.025,0,91.126,1.963,132.958,18.123
			c20.843,8.052,40.46,21.045,53.105,39.791c16.056,23.802,14.42,50.425,14.42,77.937c0,4.828,0,9.657,0,14.485
			c0,0-200.484,0-200.484-0.001C697.367,708.403,697.607,692.282,695.665,676.593z M697.367,476.339
			c-55.234,0-100.016-44.961-100.016-100.467c0-55.504,44.782-100.462,100.016-100.462c55.24,0,100.022,44.958,100.022,100.462
			C797.389,431.29,752.607,476.339,697.367,476.339L697.367,476.339z M727.533,476.339"/>
	</g>
</g>
</svg>
