<?xml version="1.0" encoding="utf-8"?>
<!-- Generator: Adobe Illustrator 18.0.0, SVG Export Plug-In . SVG Version: 6.00 Build 0)  -->
<!DOCTYPE svg PUBLIC "-//W3C//DTD SVG 1.1//EN" "http://www.w3.org/Graphics/SVG/1.1/DTD/svg11.dtd">
<svg version="1.1" id="图层_1" xmlns="http://www.w3.org/2000/svg" xmlns:xlink="http://www.w3.org/1999/xlink" x="0px" y="0px"
	 viewBox="0 0 1024 1024" style="enable-background:new 0 0 1024 1024;" xml:space="preserve">
<g>
	<g>
		<path d="M511.265,380.343c44.279,0,80.069,35.786,80.069,80.064c0,44.283-35.79,80.069-80.069,80.069
			s-80.068-35.786-80.068-80.069C431.197,416.432,466.986,380.343,511.265,380.343L511.265,380.343z M398.746,915.036
			c-15.771-2.121-22.143-21.532-16.682-36.089l102.208-280.238c5.46-14.557,21.532-22.139,36.089-16.682
			c8.493,3.036,14.561,10.01,16.986,17.897l110.7,278.112c5.762,14.254,0.607,34.271-15.771,36.396L398.746,915.036z
			 M815.16,214.745c-13.043-14.254-35.182-15.164-49.436-2.424c-14.254,13.039-15.164,35.182-2.429,49.436
			c47.922,52.468,69.151,125.561,68.543,197.744c-0.607,77.944-26.385,153.766-71.272,200.473
			c-13.343,13.95-13.039,36.089,0.911,49.436c13.95,13.343,36.089,13.039,49.436-0.911c57.322-59.139,89.772-153.161,90.683-248.091
			C902.204,371.547,875.514,280.864,815.16,214.745L815.16,214.745z M729.024,351.224c-8.793-16.982-29.721-23.957-46.704-15.164
			c-16.986,8.796-23.962,29.722-15.164,46.707c15.164,29.419,21.532,57.93,20.621,84.919c-0.907,27.904-10.007,55.2-26.385,80.98
			c-10.311,16.379-5.154,37.911,11.221,48.221c16.379,10.315,37.911,5.158,48.226-11.221c22.443-36.09,35.179-74.911,36.697-115.855
			C758.749,431.293,749.953,391.565,729.024,351.224L729.024,351.224z M211.617,214.745c13.04-14.254,35.182-15.164,49.436-2.424
			c14.254,13.039,15.164,35.182,2.425,49.436c-47.919,52.468-69.151,125.561-68.544,198.048
			c0.608,77.943,26.386,153.765,71.276,200.472c13.344,13.95,13.039,36.089-0.91,49.436c-13.954,13.344-36.093,13.039-49.437-0.911
			c-57.321-59.747-89.775-153.465-90.682-248.698C124.573,371.547,151.262,280.864,211.617,214.745L211.617,214.745z
			 M297.749,351.224c-20.622,40.34-29.722,80.069-28.204,118.891c1.515,40.943,14.254,79.765,36.697,115.854
			c10.311,16.378,31.846,21.536,48.222,11.222c16.378-10.311,21.535-31.843,11.222-48.222
			c-16.072-26.083-25.172-53.075-26.386-80.98c-0.911-26.989,5.46-55.5,20.625-84.918c8.793-16.986,1.818-38.215-15.164-46.707
			C327.471,327.267,306.242,334.242,297.749,351.224L297.749,351.224z M297.749,351.224"/>
	</g>
</g>
</svg>
