<?xml version="1.0" encoding="utf-8"?>
<!-- Generator: Adobe Illustrator 18.0.0, SVG Export Plug-In . SVG Version: 6.00 Build 0)  -->
<!DOCTYPE svg PUBLIC "-//W3C//DTD SVG 1.1//EN" "http://www.w3.org/Graphics/SVG/1.1/DTD/svg11.dtd">
<svg version="1.1" id="图层_1" xmlns="http://www.w3.org/2000/svg" xmlns:xlink="http://www.w3.org/1999/xlink" x="0px" y="0px"
	 viewBox="0 0 1024 1024" style="enable-background:new 0 0 1024 1024;" xml:space="preserve">
<g>
	<g>
		<path d="M379.606,471.618c-3.016,3.815-15.149,17.446-17.604,20.869c-12.025,16.637-15.201,42.834-10.553,58.843
			c6.584,22.546,29.068,25.1,45.762,26.767c38.623,3.897,77.879,1.288,116.898,1.288c38.067,0,76.099-0.577,114.124,0.216
			c22.486,0.406,41.392-5.797,50.756-27.082c9.981-22.681,4.88-44.095-12.097-62.353c-5.997-6.373-12.225-12.648-18.439-18.867
			c-14.233-14.331-13.966-28.673-1.349-44.109c11.732-14.357,23.747-28.77,33.63-44.378c53.288-84.164,34.69-193.912-42.787-256.265
			c-77.971-62.842-191.286-57.03-261.439,13.291c-76.22,76.375-63.887,202.441,3.959,287.819
			C396.135,447.322,389,459.754,379.606,471.618L379.606,471.618z M834.342,675.006c-0.149-41.082-17.604-60.613-57.889-60.67
			c-174.675-0.335-349.304-0.236-523.979,0.242c-40.017,0.076-56.947,17.985-57.462,57.499c-0.232,18.464-0.036,36.939-0.036,57.489
			h639.366C834.342,709.984,834.42,692.453,834.342,675.006L834.342,675.006z M230.773,816.927h566.373v-58.529H230.773V816.927z
			 M230.773,816.927"/>
	</g>
</g>
</svg>
