<?xml version="1.0" encoding="utf-8"?>
<!-- Generator: Adobe Illustrator 18.0.0, SVG Export Plug-In . SVG Version: 6.00 Build 0)  -->
<!DOCTYPE svg PUBLIC "-//W3C//DTD SVG 1.1//EN" "http://www.w3.org/Graphics/SVG/1.1/DTD/svg11.dtd">
<svg version="1.1" id="图层_1" xmlns="http://www.w3.org/2000/svg" xmlns:xlink="http://www.w3.org/1999/xlink" x="0px" y="0px"
	 viewBox="0 0 1024 1024" style="enable-background:new 0 0 1024 1024;" xml:space="preserve">
<g>
	<path d="M791.766,727.562v14.79l-171.691-34.601c-11.08,37.057-55.557,65.433-107.404,65.433c-51.9,0-96.378-28.43-107.458-66.691
		l-170.438,33.347v-14.79c0-83.991,23.467-144.515,76.512-195.161c-18.553-239.581,88.905-391.461,195.108-453.243l6.221-3.656
		l6.166,3.656c106.259,61.782,212.405,213.662,195.158,453.3C768.299,580.591,791.766,641.114,791.766,727.562L791.766,727.562z
		 M566.916,428.711c32.089-29.634,34.546-80.281,4.913-112.425c-29.633-32.089-80.227-34.601-112.371-4.967
		c-32.089,29.633-34.546,80.335-4.909,112.424C484.182,455.887,534.826,458.343,566.916,428.711L566.916,428.711z M552.784,854.776
		c0,35.8-39.568,91.411-39.568,91.411s-39.514-59.32-39.514-91.411c0-27.181,17.247-49.39,39.514-49.39
		C535.484,805.386,552.784,827.595,552.784,854.776L552.784,854.776z M552.784,854.776"/>
</g>
</svg>
