<?xml version="1.0" encoding="utf-8"?>
<!-- Generator: Adobe Illustrator 18.0.0, SVG Export Plug-In . SVG Version: 6.00 Build 0)  -->
<!DOCTYPE svg PUBLIC "-//W3C//DTD SVG 1.1//EN" "http://www.w3.org/Graphics/SVG/1.1/DTD/svg11.dtd">
<svg version="1.1" id="图层_1" xmlns="http://www.w3.org/2000/svg" xmlns:xlink="http://www.w3.org/1999/xlink" x="0px" y="0px"
	 viewBox="0 0 1024 1024" style="enable-background:new 0 0 1024 1024;" xml:space="preserve">
<g>
	<g>
		<path d="M124.729,398.776l345.266,206.812c25.254,16.688,66.172,16.793,91.394,0.137l344.512-206.332
			c25.152-16.656,25.152-43.684-0.102-60.473L560.432,132.174c-25.254-16.687-66.207-16.789-91.461-0.101l-344.308,206.3
			c-25.258,16.688-25.258,43.684,0.101,60.403H124.729z M549.069,687.358c-18.258,11.605-47.949,11.605-66.176,0
			c0,0-373.965-207.492-376.082-212.102v61.09c2.32,8.121,8.227,16.039,17.781,22.352l345.301,206.847
			c25.254,16.653,66.172,16.754,91.391,0.102l344.515-206.336c9.797-6.485,15.801-14.504,17.883-22.965v-61.09L549.069,687.358z
			 M549.069,847.791c-18.258,11.672-47.949,11.672-66.176,0L106.811,626.678v70.234c2.32,8.125,8.227,16.043,17.781,22.356
			l345.301,206.844c25.254,16.687,66.172,16.793,91.391,0.101l344.515-206.297c9.797-6.519,15.801-14.539,17.883-23.004v-70.234
			L549.069,847.823V847.791z M549.069,847.791"/>
	</g>
</g>
</svg>
