<?xml version="1.0" encoding="utf-8"?>
<!-- Generator: Adobe Illustrator 18.0.0, SVG Export Plug-In . SVG Version: 6.00 Build 0)  -->
<!DOCTYPE svg PUBLIC "-//W3C//DTD SVG 1.1//EN" "http://www.w3.org/Graphics/SVG/1.1/DTD/svg11.dtd">
<svg version="1.1" id="图层_1" xmlns="http://www.w3.org/2000/svg" xmlns:xlink="http://www.w3.org/1999/xlink" x="0px" y="0px"
	 viewBox="0 0 1024 1024" style="enable-background:new 0 0 1024 1024;" xml:space="preserve">
<g>
	<g>
		<path d="M693.429,870.203c-104.821,0-191.415-86.59-191.415-191.415s86.594-191.415,191.415-191.415
			c104.824,0,191.415,86.59,191.415,191.415S798.253,870.203,693.429,870.203L693.429,870.203z M693.429,523.831
			c-86.595,0-154.954,68.364-154.954,154.958s68.359,154.954,154.954,154.954c86.594,0,154.958-68.36,154.958-154.954
			S780.023,523.831,693.429,523.831L693.429,523.831z M770.906,742.594l-95.708-36.461h-9.113c0,0-4.558-4.555-4.558-9.113v-95.708
			c0-9.117,9.113-18.23,18.23-18.23c9.114,0,18.231,9.113,18.231,18.23v82.036l82.035,31.903
			c9.113,4.555,13.672,13.672,9.113,22.786C789.136,742.594,780.023,747.152,770.906,742.594L770.906,742.594z M720.772,268.61
			c0-18.23-18.227-36.461-36.458-36.461h-36.461v-36.458h36.461c41.017,0,72.919,31.903,72.919,72.919v191.415
			c-13.672-4.555-22.785-4.555-36.461-9.113V268.61z M611.393,286.841c-9.114,0-18.231-9.113-18.231-18.231V159.23
			c0-9.117,9.117-18.23,18.231-18.23c9.117,0,18.23,9.113,18.23,18.23v109.38C629.624,277.728,620.51,286.841,611.393,286.841
			L611.393,286.841z M356.173,195.691h218.76v36.458h-218.76V195.691z M319.712,286.841c-9.113,0-18.231-9.113-18.231-18.231V159.23
			c0-9.117,9.118-18.23,18.231-18.23s18.23,9.113,18.23,18.23v109.38C337.942,277.728,328.825,286.841,319.712,286.841
			L319.712,286.841z M319.712,396.221c0,9.117-9.113,18.23-18.231,18.23c-9.113,0-18.23-9.113-18.23-18.23
			c0-9.114,9.117-18.231,18.23-18.231C310.598,377.99,319.712,387.107,319.712,396.221L319.712,396.221z M301.481,523.831
			c-9.113,0-18.23-9.113-18.23-18.227c0-9.118,9.117-18.231,18.23-18.231c9.118,0,18.231,9.113,18.231,18.231
			C319.712,514.717,310.598,523.831,301.481,523.831L301.481,523.831z M319.712,614.983c0,9.114-9.113,18.231-18.231,18.231
			c-9.113,0-18.23-9.117-18.23-18.231c0-9.117,9.117-18.23,18.23-18.23C310.598,596.753,319.712,605.866,319.712,614.983
			L319.712,614.983z M374.403,596.753h109.38c-4.558,13.672-9.113,22.789-9.113,36.461H374.403c-9.117,0-18.23-9.117-18.23-18.231
			C356.173,605.866,365.286,596.753,374.403,596.753L374.403,596.753z M356.173,396.221c0-13.673,9.113-18.231,18.23-18.231h278.01
			c9.113,0,18.227,9.117,18.227,18.231v4.558c-4.555,4.558-13.672,13.672-22.786,13.672H374.403
			C365.286,414.451,356.173,405.337,356.173,396.221L356.173,396.221z M374.403,523.831c-9.117,0-18.23-9.113-18.23-18.227
			c0-9.118,9.113-18.231,18.23-18.231h195.974c-18.23,9.113-31.902,22.786-45.578,36.458H374.403z M210.332,268.61v473.984
			c0,18.23,18.23,36.461,36.461,36.461h241.548c4.555,13.672,13.673,27.344,22.786,36.461H246.793
			c-41.02,0-72.922-31.903-72.922-72.922V268.61c0-41.016,31.903-72.919,72.922-72.919h36.458v36.458h-36.458
			C228.562,232.149,210.332,250.38,210.332,268.61L210.332,268.61z M210.332,268.61"/>
	</g>
</g>
</svg>
