<?xml version="1.0" encoding="utf-8"?>
<!-- Generator: Adobe Illustrator 18.0.0, SVG Export Plug-In . SVG Version: 6.00 Build 0)  -->
<!DOCTYPE svg PUBLIC "-//W3C//DTD SVG 1.1//EN" "http://www.w3.org/Graphics/SVG/1.1/DTD/svg11.dtd">
<svg version="1.1" id="图层_1" xmlns="http://www.w3.org/2000/svg" xmlns:xlink="http://www.w3.org/1999/xlink" x="0px" y="0px"
	 viewBox="0 0 1024 1024" style="enable-background:new 0 0 1024 1024;" xml:space="preserve">
<style type="text/css">
	.st0{fill:#333333;}
</style>
<g>
	<g>
		<path class="st0" d="M514.233,940.394c-237.176,0-430.154-192.974-430.154-430.149c0-237.176,192.978-430.154,430.154-430.154
			c237.233,0,430.149,192.978,430.149,430.154C944.381,747.42,751.465,940.394,514.233,940.394L514.233,940.394z M514.233,155.884
			c-195.386,0-354.361,158.975-354.361,354.361c0,195.324,158.975,354.31,354.361,354.31c195.439,0,354.356-158.929,354.356-354.31
			C868.588,314.859,709.614,155.884,514.233,155.884L514.233,155.884z M490.649,704.519c-6.913,9.431-17.808,15.129-29.499,15.416
			h-0.821c-11.383,0-22.119-5.161-29.326-14.012l-126.591-157.08c-13.075-16.192-10.494-39.89,5.697-52.968
			c16.184-13.086,39.94-10.506,52.969,5.69l95.902,118.949l205.47-279.433c12.323-16.779,35.96-20.364,52.681-8.041
			c16.717,12.324,20.351,35.96,7.971,52.681L490.649,704.519z M490.649,704.519"/>
	</g>
</g>
</svg>
