<?xml version="1.0" encoding="utf-8"?>
<!-- Generator: Adobe Illustrator 18.0.0, SVG Export Plug-In . SVG Version: 6.00 Build 0)  -->
<!DOCTYPE svg PUBLIC "-//W3C//DTD SVG 1.1//EN" "http://www.w3.org/Graphics/SVG/1.1/DTD/svg11.dtd">
<svg version="1.1" id="图层_1" xmlns="http://www.w3.org/2000/svg" xmlns:xlink="http://www.w3.org/1999/xlink" x="0px" y="0px"
	 viewBox="0 0 1024 1024" style="enable-background:new 0 0 1024 1024;" xml:space="preserve">
<g>
	<path d="M855.341,370.067C823.301,213.454,684.767,95.658,518.667,95.658c-166.053,0-304.633,117.796-336.673,274.409
		c-4.566,22.359-6.98,45.53-6.98,69.253c0,238.647,343.653,504.03,343.653,504.03s343.654-265.383,343.654-504.026
		C862.321,415.597,859.952,392.431,855.341,370.067L855.341,370.067z M518.667,874.617c0,0-297.832-229.514-297.832-435.911
		c0-20.54,2.105-40.562,6.063-59.905c27.764-135.447,147.841-237.315,291.77-237.315c143.952,0,264.006,101.868,291.793,237.315
		c3.981,19.342,6.04,39.365,6.04,59.905C816.505,645.099,518.667,874.617,518.667,874.617L518.667,874.617z M518.667,874.617"/>
	<path d="M518.667,238.859c-88.553,0-162.474,62.687-179.543,146.029c-2.443,11.915-3.737,24.23-3.737,36.873
		c0,127.024,183.28,268.254,183.28,268.254s183.281-141.235,183.281-268.254c0-12.643-1.253-24.958-3.713-36.873
		C681.141,301.546,607.244,238.859,518.667,238.859L518.667,238.859z M518.667,626.577c0,0-137.46-105.923-137.46-201.19
		c0-9.487,0.964-18.72,2.82-27.658c12.795-62.508,68.235-109.526,134.64-109.526c66.447,0,121.846,47.018,134.687,109.526
		c1.833,8.938,2.773,18.171,2.773,27.658C656.127,520.649,518.667,626.577,518.667,626.577L518.667,626.577z M518.667,626.577"/>
</g>
</svg>
