<?xml version="1.0" encoding="utf-8"?>
<!-- Generator: Adobe Illustrator 18.0.0, SVG Export Plug-In . SVG Version: 6.00 Build 0)  -->
<!DOCTYPE svg PUBLIC "-//W3C//DTD SVG 1.1//EN" "http://www.w3.org/Graphics/SVG/1.1/DTD/svg11.dtd">
<svg version="1.1" id="图层_1" xmlns="http://www.w3.org/2000/svg" xmlns:xlink="http://www.w3.org/1999/xlink" x="0px" y="0px"
	 viewBox="0 0 1024 1024" style="enable-background:new 0 0 1024 1024;" xml:space="preserve">
<style type="text/css">
	.st0{fill-rule:evenodd;clip-rule:evenodd;}
</style>
<g>
	<path class="st0" d="M372.963,160.338c50.448-0.75,84.332,12.248,105.832,33.831c7.016,7.045,12.166,14.524,15.736,21.91
		c2.003,4.144,2.986,7.064,3.229,8.135l-0.498-4.446v345.061c0-1.661,1.642-5.508,7.741-8.21c5.843-2.587,9.487-1.412,10.658-0.425
		l-12.948,15.352l16.182-11.896c-5.615-7.637-16.997-17.427-35.432-26.562c-28.679-14.212-66.898-22.552-115.827-22.552
		c-49.135,0-85.565,8.148-111.138,22.252c-17.142,9.452-26.9,19.974-31.073,28.582l18.073,8.759l-15.079-13.265
		c1.449-1.648,5.704-3.727,13.19-0.783c7.252,2.852,8.905,6.943,8.905,8.932V329.357v-109.59l-2.654,9.978
		c0.989-1.729,3.351-5.323,7.069-10.154c6.374-8.282,14.093-16.602,23.119-24.353c26.068-22.388,57.335-35.461,94.312-34.901
		H372.963L372.963,160.338z M372.969,120.175c-47.564-0.72-88.029,16.199-121.09,44.592c-19.309,16.583-32.138,33.248-38.879,45.024
		l-2.654,4.636v5.342v109.59v235.656c0,29.344,28.668,40.619,48.231,18.381l1.802-2.049l1.19-2.457
		c0.616-1.269,4.599-5.564,14.324-10.927c19.203-10.59,49.01-17.257,91.741-17.257c42.935,0,75.055,7.008,97.991,18.374
		c12.536,6.212,18.998,11.77,20.905,14.364l1.411,1.92l1.821,1.536c21.271,17.94,47.665,6.251,47.665-22.069V219.768l-0.498-4.445
		c-3.029-13.346-11.857-31.608-29.678-49.5c-29.397-29.511-73.828-46.555-134.887-45.648H372.969L372.969,120.175z"/>
	<path class="st0" d="M109.93,322.315v375.131c0,28.817,27.296,40.211,48.219,20.874l1.568-1.622
		c1.443-1.67,4.859-5.136,10.227-9.809c9.264-8.067,20.451-16.194,33.54-23.814c37.692-21.938,82.89-35.127,135.788-35.127
		c51.81,0,91.883,15.125,122.217,40.248c10.498,8.693,19.029,17.975,25.722,27.183c3.86,5.31,6.158,9.21,7.029,10.999
		c4.853,9.974,16.873,14.125,26.846,9.272c9.974-4.853,14.125-16.873,9.272-26.846c-6.621-13.609-20.502-32.705-43.249-51.544
		c-37.381-30.957-86.449-49.478-147.838-49.478c-60.3,0-112.391,15.201-155.994,40.579c-26.465,15.404-44.422,31.039-53.961,42.083
		l15.199,13.128l-13.631-14.749c1.138-1.052,4.836-2.43,11.046,0.163c6.467,2.699,8.165,6.677,8.165,8.461V322.315
		c0-11.092-8.992-20.084-20.084-20.084C118.921,302.232,109.93,311.223,109.93,322.315L109.93,322.315L109.93,322.315z"/>
	<path class="st0" d="M656.581,120.175c-61.06-0.907-105.491,16.136-134.887,45.648c-17.821,17.892-26.649,36.154-29.678,49.5
		l-0.498,4.445v345.061c0,28.32,26.394,40.009,47.665,22.069l1.821-1.536l1.411-1.92c1.907-2.595,8.37-8.152,20.905-14.364
		c22.935-11.367,55.055-18.374,97.991-18.374c42.73,0,72.537,6.667,91.741,17.257c9.725,5.363,13.708,9.658,14.324,10.927
		l1.19,2.457l1.802,2.049c19.563,22.238,48.231,10.963,48.231-18.381V329.357v-109.59v-5.342l-2.654-4.636
		c-6.741-11.777-19.57-28.441-38.879-45.024c-33.06-28.393-73.526-45.312-121.09-44.592H656.581L656.581,120.175z M656.586,160.338
		c36.977-0.56,68.244,12.513,94.312,34.901c9.026,7.751,16.744,16.072,23.119,24.353c3.718,4.831,6.08,8.425,7.069,10.154
		l-2.654-9.978v109.59v235.656c0-1.989,1.653-6.08,8.905-8.932c7.485-2.945,11.74-0.866,13.19,0.783l-15.079,13.265l18.073-8.759
		c-4.173-8.608-13.931-19.129-31.073-28.582c-25.573-14.104-62.003-22.252-111.138-22.252c-48.928,0-87.148,8.339-115.827,22.552
		c-18.434,9.135-29.816,18.924-35.432,26.562l16.182,11.896l-12.948-15.352c1.171-0.987,4.815-2.162,10.658,0.425
		c6.1,2.702,7.741,6.549,7.741,8.21V219.768l-0.498,4.446c0.243-1.071,1.226-3.99,3.229-8.135c3.571-7.386,8.72-14.865,15.736-21.91
		c21.5-21.583,55.384-34.581,105.832-33.831H656.586L656.586,160.338z"/>
	<path class="st0" d="M873.104,322.315v375.131c0-1.784,1.698-5.762,8.165-8.461c6.209-2.593,9.908-1.215,11.046-0.163
		l-13.631,14.749l15.199-13.128c-9.539-11.044-27.495-26.679-53.961-42.083c-43.602-25.378-95.694-40.579-155.994-40.579
		c-61.608,0-110.704,19.525-147.908,52.102c-22.561,19.754-36.23,39.724-42.695,53.908c-4.6,10.093-0.147,22.004,9.946,26.604
		c10.094,4.6,22.005,0.147,26.605-9.946c0.883-1.938,3.181-6.088,7.031-11.712c6.648-9.712,15.131-19.49,25.574-28.635
		c30.073-26.333,69.857-42.154,121.448-42.154c52.899,0,98.096,13.189,135.789,35.127c13.09,7.62,24.277,15.747,33.54,23.814
		c5.369,4.674,8.785,8.139,10.227,9.809l1.568,1.622c20.923,19.338,48.219,7.943,48.219-20.874V322.315
		c0-11.092-8.992-20.084-20.084-20.084C882.096,302.232,873.104,311.223,873.104,322.315L873.104,322.315L873.104,322.315z"/>
</g>
</svg>
