<?xml version="1.0" encoding="utf-8"?>
<!-- Generator: Adobe Illustrator 18.0.0, SVG Export Plug-In . SVG Version: 6.00 Build 0)  -->
<!DOCTYPE svg PUBLIC "-//W3C//DTD SVG 1.1//EN" "http://www.w3.org/Graphics/SVG/1.1/DTD/svg11.dtd">
<svg version="1.1" id="图层_1" xmlns="http://www.w3.org/2000/svg" xmlns:xlink="http://www.w3.org/1999/xlink" x="0px" y="0px"
	 viewBox="0 0 1024 1024" style="enable-background:new 0 0 1024 1024;" xml:space="preserve">
<style type="text/css">
	.st0{fill-rule:evenodd;clip-rule:evenodd;}
</style>
<g>
	<path class="st0" d="M702.127,275.493c0-113.969-91.997-206.36-205.482-206.36s-205.482,92.39-205.482,206.36
		s91.997,206.361,205.482,206.361S702.127,389.462,702.127,275.493L702.127,275.493z M326.9,275.493
		c0-94.149,75.997-170.471,169.746-170.471s169.746,76.322,169.746,170.471s-75.997,170.472-169.746,170.472
		S326.9,369.642,326.9,275.493L326.9,275.493z"/>
	<path class="st0" d="M148.22,751.018v17.944h17.868h321.624h357.36h17.868v-17.944c0-161.111-165.355-305.054-357.36-305.054
		c-11.553,0-23.041,0.468-34.438,1.397c-9.835,0.802,15.771,9.46,16.57,19.338c10.435-0.852,7.281,15.154,17.868,15.154
		c173.313,0,321.624,129.106,321.624,269.165l17.868-17.944h-357.36H166.088l17.868,17.944c0-95.296,59.895-182.411,156.389-230.924
		c8.824-4.436,12.397-15.217,7.979-24.079c-4.417-8.862-15.152-12.449-23.976-8.013C216.329,542.31,148.22,641.371,148.22,751.018
		L148.22,751.018z"/>
</g>
</svg>
