<?xml version="1.0" encoding="utf-8"?>
<!-- Generator: Adobe Illustrator 18.0.0, SVG Export Plug-In . SVG Version: 6.00 Build 0)  -->
<!DOCTYPE svg PUBLIC "-//W3C//DTD SVG 1.1//EN" "http://www.w3.org/Graphics/SVG/1.1/DTD/svg11.dtd">
<svg version="1.1" id="图层_1" xmlns="http://www.w3.org/2000/svg" xmlns:xlink="http://www.w3.org/1999/xlink" x="0px" y="0px"
	 viewBox="0 0 1024 1024" style="enable-background:new 0 0 1024 1024;" xml:space="preserve">
<style type="text/css">
	.st0{clip-path:url(#SVGID_2_);}
</style>
<g>
	<g>
		<defs>
			<rect id="SVGID_1_" x="147.603" y="147.188" width="716.674" height="658.435"/>
		</defs>
		<clipPath id="SVGID_2_">
			<use xlink:href="#SVGID_1_"  style="overflow:visible;"/>
		</clipPath>
		<path class="st0" d="M784.636,207.447H665.17v-39.825c0-7.112-3.797-13.685-9.957-17.244c-6.16-3.556-13.751-3.556-19.911,0
			c-6.163,3.559-9.957,10.132-9.957,17.244v39.825H386.42v-39.825c0-10.997-8.914-19.911-19.911-19.911
			c-10.996,0-19.914,8.914-19.914,19.911v39.825H227.136c-43.966,0.042-79.599,35.674-79.641,79.641v438.034
			c0.042,43.966,35.674,79.599,79.641,79.641h557.5c43.967-0.042,79.599-35.674,79.641-79.641V287.088
			C864.234,243.122,828.602,207.49,784.636,207.447L784.636,207.447z M227.136,247.273h119.466v39.822
			c0,11.001,8.918,19.915,19.914,19.915c10.997,0,19.911-8.914,19.911-19.915v-39.822h238.925v39.822
			c0,11.001,8.914,19.915,19.911,19.915c10.996,0,19.914-8.914,19.914-19.915v-39.822h119.459
			c21.983,0.028,39.794,17.839,39.823,39.822v59.729H187.321v-59.736C187.352,265.112,205.159,247.304,227.136,247.273
			L227.136,247.273z M784.636,764.945h-557.5c-21.983-0.029-39.794-17.84-39.823-39.823V386.643h637.138v338.479
			C824.424,747.101,806.616,764.912,784.636,764.945L784.636,764.945z M784.636,764.945"/>
	</g>
	<path d="M704.993,496.152H306.779c-7.115,0-13.688,3.797-17.244,9.957c-3.559,6.16-3.559,13.751,0,19.91
		c3.556,6.163,10.129,9.958,17.244,9.958h398.213c7.115,0,13.688-3.794,17.244-9.958c3.559-6.16,3.559-13.751,0-19.91
		C718.68,499.949,712.108,496.152,704.993,496.152L704.993,496.152z M704.993,615.61H306.779c-7.115,0-13.688,3.797-17.244,9.957
		c-3.559,6.16-3.559,13.751,0,19.911c3.556,6.163,10.129,9.957,17.244,9.957h398.213c10.996,0,19.914-8.914,19.914-19.911
		C724.906,624.528,715.989,615.61,704.993,615.61L704.993,615.61z M704.993,615.61"/>
</g>
</svg>
