<?xml version="1.0" encoding="utf-8"?>
<!-- Generator: Adobe Illustrator 18.0.0, SVG Export Plug-In . SVG Version: 6.00 Build 0)  -->
<!DOCTYPE svg PUBLIC "-//W3C//DTD SVG 1.1//EN" "http://www.w3.org/Graphics/SVG/1.1/DTD/svg11.dtd">
<svg version="1.1" id="图层_1" xmlns="http://www.w3.org/2000/svg" xmlns:xlink="http://www.w3.org/1999/xlink" x="0px" y="0px"
	 viewBox="0 0 1024 1024" style="enable-background:new 0 0 1024 1024;" xml:space="preserve">
<style type="text/css">
	.st0{fill-rule:evenodd;clip-rule:evenodd;}
</style>
<g>
	<path class="st0" d="M509.017,408.572c-53.706,0-97.645,43.937-97.645,97.645s43.939,97.648,97.645,97.648
		c53.708,0,97.647-43.939,97.647-97.648S562.719,408.572,509.017,408.572L509.017,408.572 M846.248,408.572
		c-53.703,0-97.646,43.937-97.646,97.645s43.944,97.648,97.646,97.648c53.708,0,97.652-43.939,97.652-97.648
		S899.957,408.572,846.248,408.572L846.248,408.572 M171.783,408.572c-53.709,0-97.648,43.937-97.648,97.645
		s43.939,97.648,97.648,97.648c53.708,0,97.645-43.939,97.645-97.648S225.491,408.572,171.783,408.572L171.783,408.572
		 M171.783,408.572"/>
</g>
</svg>
